<svg width="31" height="33" viewBox="0 0 31 33" fill="none" xmlns="http://www.w3.org/2000/svg">
<path d="M15.0187 11.3333C15.0187 15.7516 15.9863 16 10.2986 16C4.61082 16 0 12.4183 0 8C0 3.58172 4.61082 1.90735e-06 10.2986 1.90735e-06C15.9863 1.90735e-06 15.0187 6.91506 15.0187 11.3333Z" fill="#E9D415"/>
<path d="M16.062 11.3333C16.062 15.7516 15.0997 16 20.7568 16C26.414 16 31 12.4183 31 8C31 3.58172 26.414 1.58508e-06 20.7568 1.18754e-06C15.0997 7.89999e-07 16.062 6.91506 16.062 11.3333Z" fill="#E9D415"/>
<path d="M15.9813 21.6667C15.9813 17.2484 15.0137 17 20.7014 17C26.3892 17 31 20.5817 31 25C31 29.4183 26.3892 33 20.7014 33C15.0137 33 15.9813 26.0849 15.9813 21.6667Z" fill="#E9D415"/>
<path d="M14.938 21.6667C14.938 17.2484 15.9003 17 10.2432 17C4.58603 17 3.1292e-06 20.5817 2.01587e-06 25C9.02534e-07 29.4183 4.58603 33 10.2432 33C15.9003 33 14.938 26.0849 14.938 21.6667Z" fill="#E9D415"/>
</svg>
